<?xml version="1.0" encoding="UTF-8" standalone="no"?>
<!DOCTYPE svg PUBLIC "-//W3C//DTD SVG 1.1//EN" "http://www.w3.org/Graphics/SVG/1.1/DTD/svg11.dtd">
<svg width="100%" height="100%" viewBox="0 0 1500 800" version="1.1" xmlns="http://www.w3.org/2000/svg" xmlns:xlink="http://www.w3.org/1999/xlink" xml:space="preserve" xmlns:serif="http://www.serif.com/" style="fill-rule:evenodd;clip-rule:evenodd;stroke-linecap:round;stroke-linejoin:round;stroke-miterlimit:1.5;">
    <g id="thought">
        <g transform="matrix(0.888385,0,0,1.04039,-7.48514,-9.79599)">
            <path d="M751.787,417.483C714.513,445.903 662.178,491.625 623.815,500.7C621.402,501.271 610.211,503.749 596.038,503.018C545.512,500.412 504.801,460.516 510.756,392.071C516.838,322.181 570.122,292.296 614.608,292.373C632.471,292.403 667.838,299.727 744.093,367.978C747.861,371.35 751.335,374.512 754.52,377.449C775.763,360.231 795.961,340.682 817.744,322.917C818.479,322.317 822.696,318.879 829.602,319.025C831.723,319.07 833.879,319.458 835.82,320.19C835.838,320.196 841.211,323.403 841.216,323.41C842.378,324.991 843.915,326.412 844.697,328.155C845.456,329.846 845.803,331.704 845.75,333.514C845.698,335.326 845.243,337.167 844.387,338.825C842.725,342.046 842.455,341.93 839.477,344.367C819.13,361.021 798.956,380.576 776.57,398.628C778.564,400.643 779.92,402.05 780.647,402.804C815.146,438.605 838.1,471.097 878.691,474.527C887.035,475.232 902.282,475.947 920.538,462.75C944.211,445.636 958.616,415.181 958.501,399.685C958.294,371.961 943.518,361.846 918.752,340.837C918.031,340.226 913.895,336.717 913.88,330.824C913.865,324.936 917.976,321.413 918.692,320.799C919.409,320.185 923.521,316.661 930.408,316.648C932.53,316.644 934.697,316.982 936.661,317.668C940.479,319.002 940.353,319.233 943.283,321.714C967.34,342.082 991.614,359.705 991.679,399.982C991.736,434.802 950.801,503.712 885.022,503.162C829.158,502.694 798.268,467.276 767.785,434.371C762.643,428.82 757.859,423.639 751.787,417.483ZM729.745,396.309C728.657,395.307 727.536,394.279 726.379,393.222C663.241,335.56 628.666,320.668 614.549,320.702C582.442,320.78 544.284,344.637 543.381,403.204C542.587,454.731 574.538,480.448 613.033,473.795C635.353,469.937 677.787,436.924 697.224,421.746C713.889,408.733 720.406,403.392 729.745,396.309Z" style="fill:white;"/>
        </g>
        <g transform="matrix(0.210803,-0.177199,1.38896,1.65237,37.1084,-106.492)">
            <path d="M919.158,432.233L908.35,447.678L862.822,448.754L841.807,435.074L919.158,432.233Z" style="fill:rgb(3,0,11);"/>
        </g>
        <g transform="matrix(0.139338,-0.0826748,0.991311,1.67073,253.719,-174.279)">
            <path d="M926.449,432.145L919.922,448.195L832.787,448.195L832.452,432.046L926.449,432.145Z" style="fill:rgb(3,0,11);"/>
        </g>
        <g transform="matrix(0.617648,0,0,0.529852,154.555,205.341)">
            <path d="M1042.66,320.937L1043.29,220.866L1141.99,220.866" style="fill:none;stroke:white;stroke-width:38.67px;"/>
        </g>
        <g transform="matrix(1,5.55112e-17,0,1,9.06757,6.96081)">
            <path d="M503.898,291.567L516.373,318.666C505.167,321.505 492.606,330.721 480.576,346.159L468.534,313.41C477.695,304.13 489.564,296.551 503.898,291.567Z" style="fill:rgb(3,0,11);"/>
        </g>
        <g transform="matrix(10.775,0,0,10.775,-6646.44,-7124.05)">
            <g transform="matrix(33.6246,0,0,33.6246,665.763,702.111)">
            </g>
            <text x="639.2px" y="702.111px" style="font-family:'Godber';font-size:33.625px;fill:white;">t<tspan x="650.027px " y="702.111px ">h</tspan></text>
        </g>
        <g transform="matrix(10.775,0,0,10.775,-6092.46,-7041.99)">
            <g transform="matrix(33.6246,0,0,33.6246,638.864,702.111)">
            </g>
            <g transform="matrix(33.6246,0,0,33.6246,655.77,702.111)">
            </g>
            <g transform="matrix(33.6246,0,0,33.6246,682.273,702.111)">
            </g>
            <text x="639.2px" y="702.111px" style="font-family:'Godber';font-size:33.625px;fill:white;"><tspan x="672.118px " y="702.111px ">t</tspan></text>
        </g>
        <g transform="matrix(0.106332,-0.0630911,0.991311,1.67073,305.921,-291.266)">
            <path d="M935.854,432.379C937.378,438.199 908.169,443.834 874.156,449.179C847.632,449.566 840.272,449.818 816.164,450.365L848.895,433.136C881.433,432.644 898.144,432.493 935.854,432.379Z" style="fill:rgb(3,0,11);"/>
        </g>
        <g transform="matrix(0.10481,-0.0621879,0.991311,1.67073,345.651,-311.211)">
            <path d="M918.314,434.108L870.896,450.489C826.238,448.738 804.71,448.44 784.227,447.964C810.454,442.985 831.879,437.305 828.875,431.824C860.661,432.471 877.092,433.035 918.314,434.108Z" style="fill:rgb(3,0,11);"/>
        </g>
    </g>
</svg>
